<?xml version="1.0" encoding="utf-8"?>
<!-- Generator: Adobe Illustrator 19.0.0, SVG Export Plug-In . SVG Version: 6.00 Build 0)  -->
<svg version="1.1" id="OBJECTS" xmlns="http://www.w3.org/2000/svg" xmlns:xlink="http://www.w3.org/1999/xlink" x="0px" y="0px"
	 viewBox="0 0 189.1 181.5" style="enable-background:new 0 0 189.1 181.5;" xml:space="preserve">
<style type="text/css">
	.st0{fill:none;stroke:#BABFD8;stroke-width:0.25;stroke-linecap:round;stroke-linejoin:round;stroke-miterlimit:10;}
</style>
<g>
	<path class="st0" d="M140.4,174c4.9-2.8,8.8-6.6,10.6-12.1c3.5-10.7-3.1-22.8,0.6-33.4c5.3-15.1,27.3-17.5,34.9-31.6
		c5.3-9.9,1.4-22.8-6.3-31c-8.7-9.3-23.4-11.4-30.4-21.5c-8.2-11.9,0.8-30.6-10-40.6c-6.2-5.7-16.5-4.1-23.1,1.1
		c-6.6,5.2-10.4,13.1-14.5,20.4c-5.3,9.5-9.6,17.6-21.9,18.5c-8.4,0.6-16.7-2-25.1-2.8C40.3,39.5,24.8,44,13,53.3
		C3.6,60.6-3.7,73.9,2.4,84.1c3.6,6.1,11,9,18,10.2c13.4,2.3,29.1,2.5,38,14.9c7.6,10.6,1.8,24.3,2.9,36.4c1,10.4,5.1,21,13.2,27.6
		c11.6,9.3,28,8.7,42.8,7C125.1,179.5,133.7,177.8,140.4,174z"/>
	<path class="st0" d="M138,171.1c4.7-2.6,8.4-6.3,10.1-11.4c2.5-7.2,0.2-15,0-22.6c-0.1-3,0.1-6,1.1-8.9
		c4.9-14.3,25.4-16.9,31.5-30.5c2.3-5.2,2.3-10.6,1.4-16.3c-0.8-5.6-2.9-10.8-6.6-15.2c-7.3-8.8-20.4-11.5-27.8-19.8
		c-0.4-0.5-0.8-1-1.2-1.5c-8.2-11.1-1-28-11.5-37.6c-5.9-5.5-15.5-4.5-21.8-0.1c-6.2,4.4-10.1,11.1-14.2,17.8
		c-4.9,7.8-8.9,15.1-17.9,17.4c-0.9,0.2-1.9,0.4-3,0.6c-7.7,1-15.2-0.9-23-1.2C41.6,41.3,26.8,46,15.2,54.7
		c-4.8,3.6-9.3,8.2-11.9,13.6c-2.8,5.9-3.1,12.8,0.5,18.2c3.8,5.7,10.8,8.4,17.6,9.4c11.1,1.6,23.8,1.7,32.8,9.2
		c1.5,1.2,2.9,2.7,4.1,4.3c7.4,10,2.4,23.4,3.8,35c1.2,9.9,5.2,19.9,13,26.1c11.1,8.8,26.8,8.4,40.9,6.8
		C123.4,176.4,131.6,174.8,138,171.1z"/>
	<path class="st0" d="M135.5,168.3c4.4-2.5,7.9-6,9.6-10.7c2.4-6.7,0.6-14.1,0.5-21.3c0-2.9,0.2-5.7,1.1-8.4
		c4.6-13.5,23.4-16.4,28.2-29.4c2-5.4,1.5-10.5,1.1-16.5c-0.4-5.6-1.7-10.7-5.1-15.4c-6.5-8.8-19-11.8-26.3-19.7
		c-0.4-0.4-0.8-0.9-1.2-1.4c-8.3-10.4-2.8-25.3-12.9-34.7C124.8,5.6,116,6,110.1,9.5c-5.8,3.5-9.7,9.1-13.9,15.1
		c-5,7-8.9,14.1-17.1,16.8c-0.9,0.3-1.7,0.5-2.7,0.7c-7,1.4-13.7,0.2-20.8,0.5C42.9,43.1,28.8,48,17.5,56.1
		c-5.1,3.7-10.2,8.2-13,13.8C1.3,76,1.2,83.5,5.3,88.9c3.9,5.3,10.6,7.7,17.1,8.5c10.8,1.3,23,1,31.8,8.1c1.5,1.2,2.8,2.5,4,4.1
		c7.3,9.5,3,22.4,4.6,33.5c1.3,9.4,5.4,18.7,12.9,24.6c10.7,8.3,25.5,8.1,38.9,6.6C121.7,173.4,129.4,171.8,135.5,168.3z"/>
	<path class="st0" d="M133.1,165.4c4.1-2.4,7.4-5.6,9.1-10.1c2.4-6.3,0.9-13.2,0.9-19.9c0-2.7,0.3-5.3,1.1-7.9
		c4.2-12.7,21.3-16,24.9-28.4c1.6-5.7,0.7-10.4,0.8-16.6c0.1-5.6-0.5-10.7-3.7-15.7c-5.7-8.8-17.5-12.2-24.7-19.5
		c-0.4-0.4-0.8-0.8-1.2-1.3c-8.3-9.6-4.7-22.7-14.4-31.7c-5.5-5.1-13.5-5.2-19-2.6c-5.5,2.6-9.3,7.1-13.6,12.4
		c-5,6.2-9,13.2-16.4,16.2c-0.8,0.3-1.6,0.6-2.4,0.9c-6.3,1.8-12.2,1.3-18.6,2.1c-11.6,1.4-25,6.5-36.2,14.1
		c-5.5,3.7-11,8.1-14.2,14c-3.4,6.3-3.3,14.3,1.2,19.7c4,4.9,10.4,7.1,16.7,7.6c10.4,1,22.1,0.3,30.7,7c1.4,1.1,2.7,2.4,3.9,3.9
		c7.1,9,3.6,21.4,5.5,32c1.5,8.8,5.5,17.6,12.7,23.1c10.2,7.9,24.3,7.8,37,6.4C120,170.4,127.3,168.7,133.1,165.4z"/>
	<path class="st0" d="M130.7,162.5c3.8-2.2,6.9-5.3,8.6-9.4c2.4-5.8,1.3-12.2,1.4-18.5c0.1-2.5,0.3-5,1.1-7.4
		c3.9-11.9,19.1-15.6,21.6-27.3c1.3-6-0.1-10.3,0.4-16.8c0.5-5.7,0.8-10.6-2.2-15.9c-4.9-8.7-16-12.5-23.2-19.3
		c-0.4-0.4-0.8-0.8-1.2-1.2c-8.4-8.8-6.5-20-15.9-28.7c-5.3-4.9-12.5-5.6-17.6-3.8c-5.1,1.7-8.9,5.2-13.3,9.8
		c-5.1,5.4-9.1,12.2-15.6,15.6c-0.7,0.4-1.4,0.7-2.2,1c-5.6,2.2-10.6,2.4-16.5,3.8c-10.5,2.4-23.3,7.6-34.1,14.7
		C16.1,62.8,10,67,6.6,73.1c-3.6,6.5-3.4,15.1,1.6,20.5c4.1,4.5,10.2,6.4,16.3,6.8c10,0.6,21.2-0.4,29.7,5.8c1.4,1,2.7,2.3,3.9,3.7
		c6.9,8.5,4.2,20.4,6.3,30.5c1.7,8.3,5.7,16.4,12.5,21.6c9.8,7.4,23.1,7.6,35.1,6.1C118.3,167.3,125.2,165.7,130.7,162.5z"/>
	<path class="st0" d="M128.2,159.6c3.5-2.1,6.4-4.9,8.1-8.7c2.3-5.3,1.6-11.3,1.9-17.1c0.1-2.3,0.4-4.6,1.1-6.9
		c3.5-11.2,16.7-15.4,18.2-26.2c0.9-6.3-1-10.3,0.1-17c0.9-5.7,2-10.5-0.8-16.2c-4.2-8.5-14.5-12.9-21.7-19.1
		c-0.4-0.4-0.8-0.7-1.2-1.1c-8.4-8-8.3-17.3-17.4-25.7c-5-4.6-11.5-6-16.3-5.1s-8.5,3.2-12.9,7.1c-5.2,4.6-9.2,11.2-14.9,15
		c-0.6,0.4-1.2,0.8-1.9,1.1c-4.8,2.6-9.1,3.6-14.3,5.4c-9.4,3.3-21.6,8.7-32.1,15.3c-6.2,3.9-12.7,7.9-16.5,14.3
		c-3.9,6.6-3.5,15.9,2,21.3c4.2,4.1,10,5.7,15.9,5.9c9.7,0.3,20.4-1.1,28.6,4.7c1.4,1,2.6,2.1,3.8,3.5c6.7,7.9,4.8,19.4,7.2,29.1
		c1.9,7.8,5.8,15.2,12.3,20c9.3,6.9,21.8,7.3,33.2,5.9C116.6,164.3,123.1,162.7,128.2,159.6z"/>
	<path class="st0" d="M125.8,156.8c3.3-2,6-4.6,7.6-8.1c2.3-4.9,2-10.3,2.4-15.8c0.2-2.2,0.5-4.3,1.1-6.4
		c3.1-10.4,14.3-15.1,14.9-25.2c0.4-6.7-1.8-10.2-0.2-17.2c1.3-5.8,3.2-10.4,0.7-16.4c-3.5-8.4-13.1-13.2-20.2-19
		c-0.4-0.3-0.8-0.6-1.2-1c-8.5-7.3-10.1-14.7-18.9-22.7c-4.8-4.4-10.5-6.3-14.9-6.3s-8.2,1.2-12.6,4.4c-5.3,3.8-9.3,10.3-14.2,14.4
		c-0.5,0.4-1.1,0.9-1.6,1.3c-4.1,3-7.6,4.7-12.2,7.1c-8.3,4.3-19.9,9.8-30.1,15.9c-6.6,3.9-13.6,7.9-17.6,14.5
		C4.6,83.1,5.1,93,11.1,98.3c4.2,3.8,9.8,5.1,15.4,5c9.3-0.1,19.5-1.8,27.6,3.6c1.4,0.9,2.6,2,3.7,3.2c6.6,7.4,5.4,18.4,8,27.6
		c2.1,7.2,6,14.1,12.2,18.5c8.9,6.4,20.6,7,31.2,5.7C114.9,161.3,120.9,159.7,125.8,156.8z"/>
	<path class="st0" d="M123.4,153.9c3-1.9,5.5-4.3,7.1-7.4c2.2-4.4,2.3-9.4,2.9-14.4c0.2-2,0.5-3.9,1.1-5.9
		c2.8-9.6,11.7-14.9,11.6-24.1c-0.1-7.1-2.7-10.1-0.6-17.3c1.7-5.8,4.3-10.3,2.1-16.7c-2.8-8.2-11.6-13.6-18.7-18.8
		c-0.4-0.3-0.8-0.6-1.2-0.9c-8.5-6.5-12-12-20.4-19.7c-4.6-4.2-9.5-6.7-13.5-7.6c-4-0.9-7.8-0.8-12.3,1.8c-5.4,3-9.3,9.3-13.4,13.7
		c-0.4,0.5-0.9,1-1.3,1.4c-3.4,3.4-6.1,5.8-10,8.7C49.5,52,38.5,57.5,28.6,63.2c-7,4-14.5,7.8-18.8,14.6c-4.4,7-3.8,17.6,2.7,22.9
		c4.2,3.4,9.5,4.4,15,4.2c8.9-0.4,18.6-2.5,26.5,2.5c1.3,0.8,2.5,1.8,3.6,3c6.4,6.9,5.9,17.4,8.8,26.1c2.2,6.7,6.1,12.9,12,17
		c8.4,5.9,19.4,6.7,29.3,5.5C113.2,158.3,118.8,156.7,123.4,153.9z"/>
	<path class="st0" d="M120.9,151c2.7-1.7,5-3.9,6.5-6.7c2.2-4,2.7-8.5,3.4-13c0.3-1.8,0.6-3.6,1.1-5.4c2.4-8.8,9.1-14.6,8.3-23
		c-0.7-7.4-3.5-10-0.9-17.5c2-5.9,5.4-10.2,3.6-16.9c-2.2-8-10.1-13.9-17.2-18.6c-0.4-0.3-0.8-0.5-1.2-0.8
		c-8.6-5.7-13.8-9.4-21.9-16.8c-4.4-4-8.5-7.1-12.1-8.8c-3.6-1.7-7.4-2.7-12-0.9c-5.4,2.2-9.4,8.4-12.7,13.1
		c-0.4,0.5-0.7,1.1-1.1,1.6c-2.7,3.9-4.6,7-7.8,10.3c-6.1,6.3-16.5,11.9-26,17.1c-7.3,4-15.3,7.8-19.9,14.8
		c-4.7,7.2-4,18.4,3.1,23.6c4.2,3.1,9.3,3.8,14.6,3.3c8.6-0.8,17.8-3.2,25.5,1.3c1.3,0.8,2.5,1.7,3.5,2.8c6.2,6.4,6.5,16.4,9.7,24.6
		c2.4,6.2,6.3,11.8,11.8,15.5c8,5.4,18.1,6.4,27.4,5.2C111.5,155.2,116.7,153.7,120.9,151z"/>
	<path class="st0" d="M118.5,148.1c2.4-1.6,4.5-3.6,6-6c2.2-3.5,3-7.5,3.9-11.7c0.3-1.6,0.6-3.3,1.1-4.9c2-8,6.3-14.3,4.9-21.9
		c-1.4-7.7-4.4-10-1.2-17.7c2.4-5.9,6.5-10.1,5.1-17.2c-1.6-7.9-8.7-14.3-15.7-18.5c-0.4-0.2-0.8-0.5-1.2-0.7
		c-8.6-4.9-15.6-6.7-23.4-13.8c-4.2-3.8-7.5-7.5-10.8-10.1c-3.2-2.6-7.1-4.7-11.7-3.6c-5.5,1.4-9.5,7.5-11.9,12.5
		c-0.3,0.6-0.5,1.2-0.8,1.7c-2,4.3-3.1,8.1-5.7,12c-4.9,7.3-14.8,12.9-24,17.7c-7.7,4-16.2,7.7-21.1,15c-5,7.4-4.2,19.4,3.4,24.4
		c4.2,2.8,9.1,3.1,14.1,2.5c8.2-1.1,16.9-4,24.4,0.2c1.3,0.7,2.4,1.6,3.5,2.6c6.1,5.8,7,15.4,10.5,23.2c2.5,5.6,6.5,10.6,11.6,14
		c7.5,4.9,16.9,6.1,25.5,5C109.8,152.2,114.5,150.7,118.5,148.1z"/>
	<path class="st0" d="M116.1,145.3c2.2-1.5,4.1-3.3,5.5-5.4c2.1-3.1,3.4-6.6,4.3-10.3c0.4-1.4,0.7-2.9,1.1-4.4
		c1.7-7.2,3.6-13.9,1.6-20.9c-2.3-8-5.3-9.9-1.6-17.9c2.8-6,7.6-10,6.5-17.4c-1.1-7.7-7.2-14.6-14.2-18.3c-0.4-0.2-0.8-0.4-1.2-0.6
		c-8.7-4.2-17.4-4.1-24.9-10.8c-3.9-3.5-6.6-7.8-9.4-11.3c-2.8-3.5-6.7-6.7-11.4-6.2c-5.6,0.5-9.5,6.5-11.2,11.9
		c-0.2,0.6-0.4,1.2-0.5,1.9c-1.2,4.7-1.5,9.3-3.5,13.6c-3.8,8.3-13.1,13.9-22,18.3c-8.1,4-17,7.6-22.2,15.1
		c-5.2,7.6-4.5,20.3,3.8,25.2c4.2,2.5,8.9,2.5,13.7,1.6c7.9-1.4,16-4.7,23.3-0.9c1.2,0.6,2.4,1.4,3.4,2.3
		c5.9,5.3,7.6,14.4,11.4,21.7c2.7,5.1,6.6,9.4,11.5,12.5c7.1,4.4,15.7,5.9,23.5,4.8C108.1,149.2,112.4,147.7,116.1,145.3z"/>
	<path class="st0" d="M123.5,128.8c2.5-7.4,2.3-16.1-0.7-23.7c-3.2-8.2-6.2-9.9-1.9-18c3.1-6,8.5-9.9,8-17.7
		c-0.6-7.6-5.7-15-12.7-18.1c-8.9-4.1-20.1-1.6-27.5-8.3c-3.7-3.3-5.6-8.2-8-12.6c-2.5-4.4-6.3-8.7-11.1-8.9
		c-5.7-0.3-9.5,5.6-10.4,11.3c-0.9,5.7-0.1,11.8-1.6,17.3c-2.6,9.3-11.4,14.9-20,18.9c-8.5,4-17.9,7.6-23.4,15.3
		c-5.5,7.7-4.7,21.3,4.2,26c11.2,5.9,24.1-6.7,35.6-1.3c8.2,3.8,10.7,14.4,15.5,22.3c9.2,15.1,30.8,20.6,44.2,11.2
		C118.3,139.1,121.6,134.3,123.5,128.8z"/>
</g>
</svg>
